<?xml version="1.0" encoding="UTF-8"?>
<!DOCTYPE svg PUBLIC "-//W3C//DTD SVG 1.1//EN" "http://www.w3.org/Graphics/SVG/1.1/DTD/svg11.dtd">
<svg xmlns="http://www.w3.org/2000/svg" version="1.1" width="1310px" height="1310px" style="shape-rendering:geometricPrecision; text-rendering:geometricPrecision; image-rendering:optimizeQuality; fill-rule:evenodd; clip-rule:evenodd" xmlns:xlink="http://www.w3.org/1999/xlink">
<g><path style="opacity:0.998" fill="#e90000" d="M 579.5,95.5 C 659.739,91.6189 738.406,100.786 815.5,123C 856.135,135.654 894.802,152.654 931.5,174C 977.199,206.581 997.699,251.081 993,307.5C 988.15,344.708 971.65,375.542 943.5,400C 922.555,412.985 900.555,414.985 877.5,406C 868.599,400.434 860.265,394.101 852.5,387C 762.451,317.912 661.451,294.912 549.5,318C 456.427,338.064 384.927,388.23 335,468.5C 297.175,535.617 281.842,607.617 289,684.5C 294.879,777.408 331.712,855.241 399.5,918C 457.117,965.557 523.45,992.224 598.5,998C 677.171,1004.75 750.171,987.747 817.5,947C 836.732,933.769 855.399,919.769 873.5,905C 901.195,890.448 926.862,893.448 950.5,914C 993.868,957.643 1006.03,1008.81 987,1067.5C 975.43,1096.73 956.263,1119.57 929.5,1136C 855.096,1178.47 775.096,1203.47 689.5,1211C 602.541,1219.37 516.874,1212.37 432.5,1190C 326.969,1158.35 237.469,1101.85 164,1020.5C 75.7567,914.639 31.9234,792.306 32.5,653.5C 32.6506,495.44 88.6506,361.274 200.5,251C 285.937,173.621 385.937,124.954 500.5,105C 526.883,100.977 553.216,97.8107 579.5,95.5 Z"/></g>
<g><path style="opacity:0.996" fill="#e90000" d="M 1087.5,223.5 C 1087.37,224.239 1087.54,224.906 1088,225.5C 1093.67,219.833 1099.33,214.167 1105,208.5C 1105.53,207.184 1105.03,206.517 1103.5,206.5C 1135.22,182.19 1170.56,175.356 1209.5,186C 1253.98,200.147 1281.48,229.981 1292,275.5C 1299.77,328.233 1281.6,369.399 1237.5,399C 1198.45,420.099 1159.12,420.766 1119.5,401C 1070.11,369.684 1051.27,325.184 1063,267.5C 1067.84,250.8 1076.01,236.133 1087.5,223.5 Z"/></g>
<g><path style="opacity:0.988" fill="#eb1f1f" d="M 1103.5,206.5 C 1105.03,206.517 1105.53,207.184 1105,208.5C 1099.33,214.167 1093.67,219.833 1088,225.5C 1087.54,224.906 1087.37,224.239 1087.5,223.5C 1088.41,221.405 1089.58,219.405 1091,217.5C 1095.33,213.997 1099.5,210.33 1103.5,206.5 Z"/></g>
<g><path style="opacity:0.997" fill="#e90000" d="M 1167.5,892.5 C 1225.41,892.847 1265.58,919.514 1288,972.5C 1303,1029.18 1287.16,1075.01 1240.5,1110C 1194.51,1135.95 1149.51,1134.28 1105.5,1105C 1059.46,1064.31 1048.29,1015.48 1072,958.5C 1085.95,930.22 1107.78,910.72 1137.5,900C 1147.32,896.211 1157.32,893.711 1167.5,892.5 Z"/></g>
</svg>
