<svg width="49" height="49" viewBox="0 0 49 49" fill="none" xmlns="http://www.w3.org/2000/svg">
<g clip-path="url(#clip0_317_145)">
<path opacity="0.77" d="M0 24.5C-4.23619e-07 29.3456 1.4369 34.0825 4.12899 38.1115C6.82109 42.1405 10.6475 45.2807 15.1243 47.135C19.601 48.9894 24.5272 49.4746 29.2797 48.5292C34.0322 47.5839 38.3977 45.2505 41.8241 41.8241C45.2505 38.3977 47.5839 34.0322 48.5292 29.2797C49.4746 24.5272 48.9894 19.601 47.135 15.1243C45.2807 10.6475 42.1405 6.82109 38.1115 4.129C34.0825 1.4369 29.3456 3.65836e-07 24.5 0V12.5597C26.8616 12.5597 29.1701 13.26 31.1337 14.572C33.0973 15.884 34.6277 17.7488 35.5314 19.9306C36.4352 22.1124 36.6716 24.5132 36.2109 26.8294C35.7502 29.1456 34.613 31.2732 32.9431 32.9431C31.2732 34.613 29.1456 35.7502 26.8294 36.2109C24.5132 36.6716 22.1124 36.4352 19.9306 35.5314C17.7488 34.6277 15.884 33.0973 14.572 31.1337C13.26 29.1701 12.5597 26.8616 12.5597 24.5H0Z" fill="#BD00DA"/>
<path opacity="0.77" d="M0.0195312 23.9956C6.33843 23.862 12.3612 21.2916 16.8294 16.8215C21.2976 12.3514 23.8654 6.32751 23.9963 0.00855255L12.501 0.0078125C12.433 3.2885 10.8177 6.17275 8.49787 8.49353C6.17808 10.8143 3.30019 12.4306 0.0195312 12.5V23.9956Z" fill="#BD00DA"/>
</g>
<defs>
<clipPath id="clip0_317_145">
<rect width="49" height="49" fill="white"/>
</clipPath>
</defs>
</svg>
