<svg width="2604" height="1118" viewBox="0 0 2604 1118" fill="none" xmlns="http://www.w3.org/2000/svg">
<path d="M567.687 0.138392C610.865 -0.622589 653.721 1.71313 696.435 8.17874C697.105 8.27928 697.775 8.37983 698.465 8.48342C736.082 14.1555 773.305 23.5561 808.875 37.0894C812.248 38.3714 815.619 39.5954 819.06 40.6787C824.195 42.3379 829.09 44.5576 834.033 46.71C836.777 47.8948 839.527 49.0273 842.31 50.1162C856.459 55.7713 869.746 62.3712 883.036 69.835C884.997 70.9331 886.968 72.0119 888.943 73.085C915.229 87.6962 938.021 111.112 949.435 139.179C949.919 140.362 950.402 141.545 950.9 142.765C964.533 177.406 964.698 216.81 949.834 251.089C949.372 252.109 948.911 253.128 948.435 254.179C947.932 255.291 947.43 256.404 946.912 257.55C941.136 269.71 933.641 280.188 924.443 290.011C922.709 291.883 921.136 293.8 919.56 295.804C910.34 306.603 895.573 314.025 881.506 315.482C878.518 315.615 875.552 315.647 872.56 315.616C871.507 315.608 870.454 315.6 869.37 315.591C852.802 315.232 840.081 308.872 828.033 297.55C823.121 293.067 817.769 289.139 812.435 285.179C811.749 284.668 811.062 284.157 810.355 283.63C797.587 274.163 784.549 265.263 770.486 257.815C767.984 256.473 765.51 255.098 763.041 253.698C762.252 253.253 761.463 252.808 760.65 252.349C759.09 251.467 757.533 250.582 755.979 249.692C751.821 247.353 747.726 245.409 743.229 243.816C740.831 242.964 738.517 241.945 736.185 240.929C700.638 226.088 662.031 215.991 623.435 215.179C622.51 215.158 621.584 215.137 620.631 215.116C588.18 214.417 556.415 215.135 524.392 220.698C523.365 220.877 523.365 220.877 522.317 221.058C511.049 223.079 500.156 226.497 489.287 230.03C486.617 230.87 483.968 231.497 481.224 232.046C475.325 233.316 469.797 235.494 464.185 237.679C463.047 238.12 461.909 238.562 460.736 239.016C444.327 245.48 428.583 253.151 413.435 262.179C412.793 262.56 412.151 262.941 411.489 263.333C395.687 272.776 380.827 283.472 367.08 295.722C365.928 296.743 364.766 297.753 363.597 298.754C358.109 303.47 352.975 308.489 347.873 313.616C347.061 314.424 346.25 315.231 345.414 316.064C336.63 324.861 328.856 334.216 321.435 344.179C320.975 344.793 320.514 345.408 320.04 346.041C307.276 363.204 296.541 381.837 287.435 401.179C286.957 402.191 286.479 403.203 285.986 404.245C283.255 410.142 280.776 416.117 278.435 422.179C277.739 423.936 277.739 423.936 277.029 425.73C273.393 435.038 270.563 444.431 268.006 454.086C267.174 457.137 266.232 460.154 265.31 463.179C263.354 469.962 262.21 476.791 261.146 483.757C260.687 486.75 260.124 489.698 259.491 492.658C255.295 513.556 254.894 534.943 254.998 556.179C255.001 557.518 255.004 558.857 255.007 560.196C255.096 591.367 258.009 620.831 265.435 651.179C265.637 652.036 265.839 652.893 266.048 653.776C270.857 674.14 277.52 694.245 286.435 713.179C286.925 714.276 287.415 715.373 287.92 716.503C299.162 741.556 313.805 765.515 331.881 786.222C334.176 788.879 336.339 791.598 338.498 794.366C348.418 806.539 360.025 817.585 372.435 827.179C373.595 828.125 374.753 829.074 375.908 830.026C383.832 836.53 391.97 842.452 400.594 847.991C402.429 849.175 404.25 850.379 406.068 851.589C412.33 855.729 418.651 859.46 425.431 862.71C429.719 864.807 433.871 867.139 438.037 869.468C441.59 871.257 445.181 872.731 448.882 874.179C451.214 875.092 453.527 876.039 455.838 877.003C465.567 881.02 475.394 884.639 485.373 887.991C486.473 888.364 487.573 888.737 488.706 889.121C499.289 892.622 509.988 895.097 520.998 896.804C529.022 898.073 529.022 898.073 531.424 898.69C533.459 899.185 535.406 899.444 537.49 899.644C538.271 899.722 539.052 899.8 539.857 899.88C541.453 900.034 543.05 900.187 544.646 900.341C549.439 900.819 554.176 901.448 558.934 902.199C565.938 903.205 572.763 903.469 579.83 903.444C581.06 903.446 582.291 903.448 583.558 903.45C586.147 903.451 588.737 903.448 591.326 903.439C595.2 903.429 599.074 903.439 602.949 903.452C623.034 903.465 643.498 903.292 663.185 898.866C664.216 898.645 665.248 898.424 666.31 898.197C668.387 897.748 670.462 897.291 672.535 896.826C675.19 896.233 677.849 895.676 680.513 895.128C702.549 890.422 725.196 883.1 745.435 873.179C746.049 872.885 746.663 872.591 747.296 872.288C763.22 864.662 779.016 856.399 793.435 846.179C794.55 845.402 795.664 844.626 796.779 843.851C807.21 836.543 817.306 828.831 826.889 820.438C842.249 806.995 858.467 799.765 879.084 800.932C893.036 802.398 905.864 809.299 916.435 818.179C917.103 818.712 917.771 819.246 918.459 819.796C924.272 824.598 928.831 830.235 933.435 836.179C934.094 836.999 934.753 837.818 935.431 838.663C945.682 851.946 952.486 867.246 957.435 883.179C957.751 884.149 958.067 885.12 958.392 886.12C968.555 919.713 962.688 958.475 946.387 989.041C930.099 1018.7 904.947 1036.94 875.435 1052.18C874.52 1052.65 873.606 1053.13 872.663 1053.61C853.503 1063.47 834.243 1072.53 813.794 1079.37C810.837 1080.38 807.929 1081.51 805.014 1082.64C782.456 1091.31 758.965 1097.27 735.435 1102.62C734.518 1102.83 733.601 1103.03 732.656 1103.25C706.907 1109.09 680.807 1112.96 654.513 1115.34C653.083 1115.47 653.083 1115.47 651.624 1115.6C630.106 1117.5 608.673 1117.76 587.085 1117.63C583.191 1117.61 579.298 1117.62 575.405 1117.63C552.239 1117.68 529.459 1116.84 506.435 1114.18C504.726 1113.98 504.726 1113.98 502.983 1113.79C492.226 1112.55 481.672 1110.96 471.103 1108.59C464.942 1107.22 458.809 1106.35 452.537 1105.67C449.542 1105.2 447.225 1104.32 444.435 1103.18C442.651 1102.88 440.857 1102.64 439.06 1102.43C402.39 1097.13 363.535 1082.87 330.017 1067.35C327.306 1066.12 324.566 1064.99 321.81 1063.87C306.118 1057.35 291.264 1049.45 276.435 1041.18C275.764 1040.81 275.092 1040.44 274.4 1040.05C258.813 1031.44 243.866 1021.72 229.297 1011.49C228.076 1010.63 226.853 1009.77 225.629 1008.92C216.847 1002.82 208.436 996.327 200.146 989.569C198.605 988.317 197.054 987.077 195.502 985.839C189.381 980.926 183.593 975.728 177.869 970.366C175.174 967.844 172.427 965.387 169.67 962.933C164.357 958.161 159.285 953.176 154.248 948.116C153.398 947.27 152.547 946.424 151.672 945.552C147.255 941.128 142.986 936.638 138.913 931.897C137.054 929.735 135.119 927.648 133.185 925.554C128.145 919.961 123.524 914.083 118.933 908.122C117.383 906.111 115.825 904.106 114.267 902.101C99.6845 883.259 86.511 863.706 74.4352 843.179C74.091 842.596 73.7468 842.014 73.3922 841.414C65.8026 828.528 59.2684 815.184 53.0758 801.581C51.9017 799.146 50.7033 796.855 49.3493 794.526C47.8501 791.904 46.628 789.486 45.5602 786.679C44.4552 783.812 43.3424 780.955 42.1657 778.116C38.7595 769.859 35.7358 761.493 32.8102 753.054C32.4381 751.982 32.0659 750.91 31.6825 749.806C27.8955 738.787 24.485 727.673 21.4352 716.429C21.181 715.496 20.9268 714.564 20.6649 713.604C18.8449 706.862 17.1709 700.095 15.6403 693.281C14.831 689.631 14.831 689.631 13.4352 686.179C13.1102 684.497 12.8255 682.808 12.5602 681.116C11.8428 676.639 11.0809 672.174 10.2741 667.712C9.3099 662.377 8.35262 657.077 7.81021 651.679C7.82494 648.359 7.82494 648.359 6.43521 647.179C6.07209 644.43 5.7663 641.695 5.49771 638.937C5.41271 638.098 5.32771 637.26 5.24014 636.397C4.96768 633.699 4.70144 631.002 4.43521 628.304C4.25591 626.522 4.07623 624.741 3.89614 622.96C3.39986 618.034 2.91432 613.107 2.43521 608.179C2.27291 606.511 2.27291 606.511 2.10733 604.81C-0.898922 572.915 -0.515705 540.364 2.16177 508.465C2.41954 505.367 2.65021 502.268 2.87271 499.167C4.59113 476.21 8.38053 453.623 13.4352 431.179C13.6487 430.209 13.8622 429.238 14.0822 428.239C20.1676 400.738 28.1199 372.956 39.236 347.042C40.4709 344.093 41.5798 341.116 42.6852 338.116C47.0612 326.622 52.6445 315.549 58.2165 304.593C59.1297 302.784 60.0222 300.964 60.904 299.14C76.9253 266.266 97.9297 235.142 121.435 207.179C121.851 206.683 122.267 206.188 122.695 205.678C124.927 203.02 127.168 200.37 129.419 197.729C131.334 195.479 133.238 193.221 135.132 190.953C141.881 182.917 148.978 175.35 156.437 167.971C158.204 166.223 159.963 164.466 161.72 162.708C167.457 156.989 173.238 151.403 179.435 146.179C180.53 145.229 181.624 144.279 182.716 143.327C194.913 132.796 207.254 122.463 220.435 113.179C221.791 112.211 223.146 111.242 224.502 110.272C232.344 104.679 240.227 99.2273 248.435 94.1787C249.412 93.569 250.389 92.9593 251.396 92.3311C264.087 84.4502 276.959 76.9207 290.06 69.7412C290.984 69.233 291.909 68.7248 292.861 68.2012C293.744 67.7207 294.627 67.2402 295.537 66.7451C296.314 66.3218 297.09 65.8984 297.891 65.4622C301.015 63.8863 304.213 62.5415 307.435 61.1787C309.604 60.2091 311.771 59.2338 313.935 58.253C332.844 49.7044 351.783 41.8815 371.435 35.1787C372.484 34.8184 373.532 34.4582 374.612 34.0869C388.977 29.1596 403.356 24.6162 418.058 20.8032C420.27 20.2222 422.472 19.6157 424.673 18.9951C431.411 17.1165 438.001 15.6236 444.947 14.7686C447.855 14.2768 450.532 13.6159 453.369 12.8389C463.356 10.2938 473.616 9.10205 483.81 7.67874C485.446 7.44813 485.446 7.44813 487.115 7.21286C513.947 3.43854 540.572 0.624256 567.687 0.138392Z" fill="#EA0000"/>
<path d="M1222.46 828.477C1237.41 842.076 1247.54 857.621 1254.74 876.399C1255.33 877.915 1255.96 879.416 1256.59 880.913C1257.42 883.151 1257.78 885.061 1258 887.429C1258.02 890.968 1258.02 890.968 1259.43 892.179C1264.25 925.28 1258.16 957.814 1238.43 985.179C1234.05 990.462 1229.3 995.346 1224.43 1000.18C1223.3 1001.33 1223.3 1001.33 1222.14 1002.5C1204.19 1019.79 1177.44 1031.75 1152.43 1032.18C1151.28 1032.22 1150.12 1032.26 1148.93 1032.3C1130.18 1032.65 1112.09 1030.27 1095.43 1021.18C1094.33 1020.71 1093.23 1020.25 1092.09 1019.77C1065.46 1008.18 1046.31 983.803 1035.32 957.515C1030.37 944.56 1027.77 932.675 1027.97 918.863C1028 916.614 1027.99 914.367 1027.97 912.119C1028 894.594 1032.04 877.63 1040.43 862.179C1040.85 861.331 1041.27 860.483 1041.7 859.609C1050.09 843.071 1063.77 828.032 1079.43 818.179C1080.45 817.511 1081.47 816.844 1082.52 816.156C1092.08 810.045 1101.82 805.928 1112.56 802.429C1113.19 802.218 1113.82 802.007 1114.48 801.79C1151.01 790.369 1194.57 803.862 1222.46 828.477Z" fill="#EA0000"/>
<path d="M1221.45 114.978C1230.36 123.218 1238.21 131.716 1244.44 142.178C1244.82 142.818 1245.2 143.459 1245.59 144.118C1260.71 169.818 1265.21 201.775 1258.27 230.885C1250.11 261.576 1230.56 287.697 1203.31 303.991C1174.93 319.789 1141.9 323.888 1110.49 315.112C1080.61 305.807 1058.83 286.17 1042.44 260.178C1041.66 258.954 1041.66 258.954 1040.86 257.706C1027.02 234.421 1023.81 199.441 1030.46 173.182C1035.54 155.718 1044.62 139.886 1056.44 126.178C1056.97 125.52 1057.51 124.861 1058.06 124.182C1074.94 103.582 1102.46 89.7301 1128.75 86.8032C1162.32 83.6716 1195.91 92.2035 1221.45 114.978Z" fill="#EA0000"/>
<path d="M676.434 318.179C691.284 318.179 706.134 318.179 721.434 318.179C721.434 378.239 721.434 438.299 721.434 500.179C724.017 497.595 725.868 495.221 727.934 492.241C737.641 478.775 749.168 467.716 763.434 459.179C764.277 458.658 765.12 458.137 765.988 457.601C788.73 444.377 821.295 443.598 846.347 449.982C853.431 451.977 860.005 454.561 866.434 458.179C867.359 458.679 868.285 459.179 869.238 459.694C890.462 472.08 900.479 492.893 907.121 515.741C911.317 531.909 911.582 548.398 911.547 564.982C911.547 566.856 911.547 568.73 911.548 570.603C911.548 575.656 911.542 580.709 911.535 585.762C911.529 591.055 911.528 596.348 911.527 601.641C911.524 611.649 911.516 621.657 911.506 631.666C911.494 643.066 911.489 654.466 911.484 665.867C911.473 689.304 911.455 712.741 911.434 736.179C896.254 736.179 881.074 736.179 865.434 736.179C865.412 727.845 865.412 727.845 865.389 719.343C865.339 700.962 865.273 682.582 865.198 664.202C865.153 653.061 865.114 641.919 865.087 630.778C865.064 621.062 865.031 611.346 864.985 601.63C864.961 596.49 864.942 591.351 864.936 586.211C864.93 581.363 864.91 576.514 864.879 571.666C864.871 569.897 864.867 568.128 864.869 566.359C864.884 544.338 861.014 521.515 846.434 504.179C845.718 503.285 845.718 503.285 844.988 502.374C835.211 491.319 818.609 486.723 804.348 485.765C782.585 484.887 765.187 492.016 748.934 506.39C732.767 521.62 723.158 544.57 722.295 566.742C722.288 568.011 722.282 569.28 722.275 570.588C722.27 571.301 722.265 572.013 722.26 572.747C722.245 575.116 722.237 577.485 722.228 579.854C722.219 581.56 722.209 583.265 722.198 584.971C722.171 589.588 722.15 594.205 722.13 598.822C722.108 603.652 722.081 608.482 722.054 613.312C722.004 622.453 721.959 631.593 721.916 640.734C721.867 651.143 721.812 661.551 721.757 671.96C721.643 693.366 721.537 714.772 721.434 736.179C706.584 736.179 691.734 736.179 676.434 736.179C676.434 598.239 676.434 460.299 676.434 318.179Z" fill="#010101"/>
<path d="M1319.82 446.74C1353.46 446.826 1382.49 455.359 1408.43 477.18L1410.29 478.625C1422.66 488.516 1431.98 503.869 1438.43 518.18L1439.67 520.828C1457.74 561.553 1458.27 615.614 1442.43 657.18L1441.29 660.305C1434.42 677.945 1423.37 692.58 1410.43 706.18L1408.67 708.141C1387.5 730.912 1352.45 742.264 1322.19 743.527C1307.43 743.981 1292.83 743.741 1278.43 740.18L1274.96 739.453C1265.65 737.47 1256.63 735.114 1248.43 730.18L1245.04 728.75C1241.36 727.147 1238.04 725.242 1234.68 723.055C1234.08 722.664 1233.48 722.272 1232.86 721.869C1204.61 703.213 1187.01 674.651 1178.5 642.305C1178.2 641.188 1177.91 640.071 1177.6 638.921C1174.19 625.23 1174.16 611.52 1174.12 597.492C1174.12 596.588 1174.12 595.683 1174.11 594.751C1174.08 552.677 1185.49 514.55 1215.43 484.18C1233.52 466.274 1257.5 452.812 1283.04 449.637C1286.24 449.255 1286.24 449.255 1288.58 448.7C1298.01 446.662 1307.46 446.738 1317.06 446.742C1318.42 446.742 1318.42 446.741 1319.82 446.74ZM1370.87 502.116C1345.71 482.744 1304.42 477.429 1275.7 491.933L1273.43 493.179C1265.55 497.282 1258.32 501.451 1251.86 507.659C1228.45 531.94 1220.15 561.355 1220.06 594.683C1220.06 595.446 1220.06 596.187 1220.06 596.929C1220.04 605.602 1220.3 614.052 1221.93 622.601C1222.28 624.403 1222.59 626.214 1222.87 628.029C1224.2 637.017 1227.16 645.422 1231.07 653.608C1242.57 675.564 1259.11 692.765 1282.81 701.005C1306.37 708.446 1335.1 707.902 1357.36 696.358L1359.43 695.179C1366.06 691.754 1371.83 687.745 1377.14 682.511C1399.14 659.622 1406.54 629.05 1406.57 597.987L1406.56 594.054C1406.59 582.232 1405.89 571.459 1403.31 559.925L1402.43 556.179C1398.34 538.482 1391.32 520.846 1377.76 508.226L1375.43 506.179C1373.93 504.802 1372.41 503.448 1370.87 502.116Z" fill="#020202"/>
<path d="M1660.05 446.843C1662.06 446.866 1664.07 446.863 1666.08 446.856C1692.7 447.001 1715.28 456.067 1734.11 474.851C1742.91 484.438 1748.05 496.122 1752.43 508.179C1752.75 509.001 1753.07 509.824 1753.4 510.671C1755.3 515.839 1756.16 521.032 1756.91 526.479C1757.19 528.491 1757.5 530.502 1757.91 532.491C1759.82 542.111 1759.7 551.59 1759.66 561.35C1759.66 563.263 1759.66 565.176 1759.66 567.089C1759.66 572.249 1759.65 577.409 1759.64 582.57C1759.62 587.975 1759.62 593.38 1759.62 598.785C1759.61 609.006 1759.6 619.226 1759.58 629.447C1759.56 641.089 1759.54 652.731 1759.53 664.374C1759.51 688.309 1759.48 712.244 1759.43 736.179C1744.58 736.179 1729.73 736.179 1714.43 736.179C1714.41 730.911 1714.39 725.643 1714.37 720.216C1714.31 702.77 1714.23 685.324 1714.15 667.878C1714.1 657.305 1714.05 646.732 1714.01 636.159C1713.98 626.936 1713.94 617.714 1713.89 608.491C1713.87 603.615 1713.84 598.738 1713.83 593.861C1713.82 589.257 1713.8 584.652 1713.77 580.048C1713.76 578.372 1713.75 576.696 1713.75 575.02C1713.73 560.443 1713.52 545.199 1708.68 531.304C1708.42 530.516 1708.16 529.729 1707.88 528.917C1703 514.762 1695.76 501.955 1682.43 494.179C1678.5 492.333 1674.5 490.725 1670.43 489.179C1669.2 488.645 1669.2 488.645 1667.95 488.101C1661.83 485.857 1655.61 485.996 1649.18 485.991C1647.85 485.973 1647.85 485.973 1646.48 485.954C1627.01 485.912 1610.26 493.752 1596.43 507.179C1595.81 507.732 1595.18 508.285 1594.54 508.854C1586.14 516.505 1581.33 526.793 1577.06 537.116C1576.72 537.901 1576.39 538.687 1576.05 539.496C1571.06 552.099 1571.13 565.492 1571.11 578.832C1571.11 580.559 1571.1 582.285 1571.08 584.011C1571.06 588.653 1571.04 593.294 1571.03 597.936C1571.01 602.803 1570.99 607.67 1570.96 612.538C1570.91 621.735 1570.88 630.932 1570.84 640.129C1570.81 650.608 1570.76 661.087 1570.71 671.566C1570.6 693.103 1570.52 714.641 1570.43 736.179C1555.25 736.179 1540.07 736.179 1524.43 736.179C1524.43 642.789 1524.43 549.399 1524.43 453.179C1539.61 453.179 1554.79 453.179 1570.43 453.179C1570.76 468.359 1571.09 483.539 1571.43 499.179C1575.39 493.569 1579.35 487.959 1583.43 482.179C1594.93 469.58 1608.25 458.738 1624.56 453.116C1625.23 452.873 1625.9 452.63 1626.59 452.38C1637.7 448.487 1648.26 446.694 1660.05 446.843Z" fill="#030303"/>
<path d="M2106.43 453.178C2123.92 453.178 2141.41 453.178 2159.43 453.178C2161.52 456.911 2163.6 460.644 2165.75 464.491C2170.09 472.253 2174.45 479.996 2178.93 487.678C2184.37 497.003 2189.63 506.42 2194.89 515.842C2198.24 521.84 2201.61 527.824 2205 533.803C2205.52 534.729 2206.04 535.656 2206.58 536.61C2209.41 541.619 2212.25 546.623 2215.1 551.624C2215.7 552.678 2216.3 553.733 2216.92 554.82C2218.07 556.851 2219.23 558.88 2220.39 560.907C2221.16 562.271 2221.16 562.271 2221.95 563.663C2222.41 564.464 2222.86 565.266 2223.33 566.091C2224.43 568.178 2224.43 568.178 2225.43 571.178C2226.09 571.508 2226.75 571.838 2227.43 572.178C2227.66 571.53 2227.89 570.881 2228.13 570.213C2229.87 566.152 2232.07 562.426 2234.31 558.616C2234.79 557.781 2235.28 556.947 2235.78 556.088C2239.74 549.314 2243.77 542.583 2247.82 535.862C2251.49 529.758 2255.13 523.63 2258.75 517.491C2264.06 508.478 2269.43 499.502 2274.82 490.538C2279.67 482.472 2284.47 474.377 2289.22 466.256C2289.72 465.412 2290.22 464.568 2290.73 463.698C2291.15 462.967 2291.58 462.235 2292.02 461.482C2292.49 460.722 2292.95 459.962 2293.43 459.178C2293.92 458.107 2294.4 457.036 2294.89 455.932C2297.81 452.771 2298.38 452.739 2302.48 452.497C2304.57 452.498 2306.67 452.532 2308.76 452.592C2310.42 452.605 2310.42 452.605 2312.11 452.618C2315.63 452.652 2319.16 452.727 2322.68 452.803C2325.07 452.833 2327.46 452.861 2329.86 452.885C2335.72 452.951 2341.57 453.052 2347.43 453.178C2345.92 456.266 2344.24 459.074 2342.32 461.928C2341.66 462.906 2341.01 463.883 2340.33 464.89C2339.6 465.975 2338.87 467.06 2338.12 468.178C2336.48 470.63 2334.84 473.084 2333.2 475.538C2332.52 476.542 2332.52 476.542 2331.84 477.567C2326.28 485.891 2320.78 494.256 2315.28 502.617C2301.95 522.887 2288.53 543.099 2275.04 563.272C2273.4 565.729 2271.76 568.188 2270.13 570.649C2267.27 574.942 2264.42 579.228 2261.46 583.456C2261.04 584.071 2260.61 584.687 2260.18 585.321C2259.32 586.551 2258.46 587.774 2257.6 588.993C2255.13 592.594 2253.9 594.824 2254.43 599.178C2255.71 601.474 2255.71 601.474 2257.61 603.741C2261.47 608.82 2265.05 614.025 2268.54 619.366C2269.1 620.215 2269.65 621.065 2270.23 621.94C2271.41 623.744 2272.59 625.548 2273.77 627.352C2284.45 643.671 2295.25 659.904 2306.18 676.053C2315.79 690.248 2325.32 704.489 2334.75 718.803C2335.3 719.636 2335.84 720.468 2336.41 721.326C2337.94 723.642 2339.46 725.96 2340.98 728.28C2341.67 729.314 2341.67 729.314 2342.36 730.369C2345.43 735.063 2345.43 735.063 2345.43 736.178C2338.13 736.74 2330.83 737.123 2323.5 737.387C2321.02 737.497 2318.54 737.647 2316.06 737.838C2299.62 739.074 2299.62 739.074 2292.43 736.178C2286.55 731.035 2283.53 723.873 2280.56 716.79C2279.19 713.62 2277.57 710.879 2275.7 707.983C2274.95 706.75 2274.95 706.75 2274.18 705.491C2273.68 704.687 2273.19 703.882 2272.68 703.053C2271.51 701.131 2270.34 699.21 2269.16 697.288C2268.56 696.301 2267.96 695.314 2267.34 694.297C2258.3 679.494 2249.31 664.666 2240.37 649.803C2239.75 648.773 2239.13 647.742 2238.49 646.681C2234.49 640.004 2230.6 633.28 2226.85 626.459C2225.64 624.062 2225.64 624.062 2223.43 623.178C2223.1 624.143 2223.1 624.143 2222.76 625.127C2220.94 629.309 2218.61 633.099 2216.25 636.991C2215.72 637.865 2215.19 638.738 2214.65 639.639C2209.93 647.415 2205.12 655.125 2200.29 662.828C2191 677.636 2181.85 692.53 2172.79 707.474C2156.83 733.786 2156.83 733.786 2154.43 736.178C2152.81 736.272 2151.18 736.296 2149.55 736.292C2148.51 736.292 2147.46 736.292 2146.39 736.292C2145.26 736.286 2144.13 736.281 2142.96 736.276C2141.23 736.274 2141.23 736.274 2139.47 736.272C2135.77 736.266 2132.07 736.253 2128.37 736.241C2125.87 736.236 2123.37 736.231 2120.87 736.227C2114.72 736.216 2108.58 736.199 2102.43 736.178C2106.49 729.744 2110.6 723.364 2114.93 717.116C2115.37 716.486 2115.8 715.856 2116.25 715.208C2119.95 709.847 2123.69 704.513 2127.43 699.178C2135.46 687.721 2143.48 676.252 2151.46 664.763C2155.87 658.413 2160.31 652.073 2164.75 645.741C2169.45 639.039 2174.11 632.312 2178.74 625.562C2181.19 621.99 2183.64 618.42 2186.12 614.866C2186.65 614.104 2187.18 613.342 2187.73 612.557C2189.01 610.77 2190.33 609.012 2191.67 607.268C2192.42 606.29 2193.16 605.311 2193.93 604.303C2194.62 603.419 2195.32 602.535 2196.03 601.624C2197.66 599.363 2197.66 599.363 2197.16 597.255C2196.41 595.104 2195.5 593.425 2194.27 591.51C2193.82 590.794 2193.36 590.079 2192.89 589.341C2192.39 588.565 2191.89 587.79 2191.37 586.991C2190.85 586.171 2190.32 585.351 2189.78 584.506C2188.63 582.703 2187.47 580.901 2186.31 579.101C2184.33 576.024 2182.36 572.941 2180.39 569.858C2174.84 561.163 2169.27 552.476 2163.68 543.803C2160.86 539.426 2158.08 535.03 2155.31 530.622C2150.32 522.694 2145.26 514.823 2140.12 506.991C2134.23 497.998 2128.48 488.922 2122.81 479.789C2118.49 472.832 2114.08 465.933 2109.58 459.089C2106.43 454.28 2106.43 454.28 2106.43 453.178Z" fill="#020202"/>
<path d="M1885.06 468.163C1927.25 439.938 1988.06 437.328 2029.24 469.594C2058.75 494.007 2068.56 529.404 2072.43 566.179V606.179H1872.43L1874.43 621.179L1874.62 626.804C1876.13 646.094 1886.42 666.215 1899.43 680.179L1901.56 682.503C1918.48 699.333 1942.16 704.53 1965.25 704.866C1995.65 704.655 2025.47 693.393 2049.78 675.358C2051.43 674.179 2051.43 674.179 2052.43 674.179C2052.68 680.032 2052.86 685.881 2052.98 691.738C2053.03 693.728 2053.1 695.718 2053.19 697.706C2053.89 714.228 2053.89 714.228 2050.33 718.988C2047.74 720.823 2045.38 722.025 2042.43 723.179C2040.8 724.043 2039.18 724.917 2037.56 725.804C2035.86 726.61 2034.15 727.401 2032.43 728.179L2029.84 729.386C1993.16 745.614 1943.09 750.436 1905 735.991C1892.49 730.886 1880.44 724.328 1870.43 715.179L1868.82 713.707C1859.79 705.382 1852.85 696.622 1846.43 686.179L1844.85 683.808C1841.57 678.882 1839.43 673.738 1837.43 668.179L1836.22 664.804C1833.89 658.124 1831.89 651.434 1830.25 644.554C1830.09 643.91 1829.94 643.267 1829.78 642.604C1829.29 640.469 1828.86 638.328 1828.43 636.179C1828.25 635.334 1828.07 634.489 1827.89 633.618C1825.93 623.172 1826.13 612.678 1826.17 602.087C1826.18 598.818 1826.17 595.549 1826.16 592.28C1826.15 581.075 1826.43 570.233 1828.43 559.179L1828.88 556.701C1835.65 521.875 1855.63 488.455 1885.06 468.163ZM1997.9 497.854C1979.84 485.595 1956.3 480.809 1935.08 487.28L1932.43 488.179C1928.63 489.279 1925.04 490.524 1921.43 492.179C1899.64 504.021 1885.68 522.989 1877.46 546.21C1877.13 547.155 1876.81 548.074 1876.5 548.991C1876.18 549.889 1875.87 550.76 1875.57 551.631C1875.28 552.504 1875 553.351 1874.72 554.198C1873.43 558.04 1873.43 558.04 1873.43 568.179H2026.43C2026.43 561.893 2026.4 556.659 2025.51 550.63L2025.12 548.116L2024.76 545.591C2021.96 527.105 2013.07 509.157 1997.9 497.854Z" fill="#010101"/>
<path d="M1879.43 472.179C1880.09 472.509 1880.75 472.839 1881.43 473.179C1874.5 480.109 1867.57 487.039 1860.43 494.179C1859.77 493.849 1859.11 493.519 1858.43 493.179C1860.61 490.798 1862.8 488.425 1865 486.054C1865.61 485.389 1866.21 484.723 1866.84 484.038C1870.81 479.753 1874.93 475.9 1879.43 472.179Z" fill="#272727"/>
<path d="M1071.43 111.179C1072.09 111.509 1072.75 111.839 1073.43 112.179C1067.16 118.449 1060.89 124.719 1054.43 131.179C1054.43 125.956 1058.92 122.765 1062.43 119.179C1065.04 116.766 1067.71 114.458 1070.43 112.179C1070.76 111.849 1071.09 111.519 1071.43 111.179Z" fill="#EC2323"/>
<path d="M1093 452.366C1108.1 446.983 1129.57 444.746 1144.43 452.178V499.178C1141.69 498.079 1138.94 496.958 1136.25 495.741C1128.07 492.268 1120.52 490.641 1111.62 490.741C1110.66 490.749 1109.7 490.757 1108.7 490.765C1093.16 491.133 1081.04 497.268 1069.7 507.753C1053.22 525.426 1045.02 548.571 1043.88 572.502C1043.83 573.343 1043.79 574.184 1043.75 575.05C1043.16 588.988 1043.2 602.951 1043.13 616.899C1043.11 621.106 1043.08 625.313 1043.05 629.519C1043.01 637.451 1042.96 645.384 1042.92 653.316C1042.87 662.361 1042.81 671.407 1042.76 680.452C1042.64 699.027 1042.54 717.603 1042.43 736.178H996.434V453.178H1042.43L1043.43 509.178L1048.43 497.178C1057.5 477.321 1072.49 460.593 1093 452.366Z" fill="#030303"/>
<path d="M2409.43 592.179C2410.09 592.509 2410.75 592.839 2411.43 593.179C2406.81 597.799 2402.19 602.419 2397.43 607.179C2397.43 602.991 2399.65 601.048 2402.43 598.179C2404.71 596.105 2407.04 594.12 2409.43 592.179Z" fill="#1D1D1D"/>
<path d="M2503.86 446.854C2513.25 446.832 2522.21 447.199 2531.43 449.179C2532.17 449.33 2532.91 449.481 2533.68 449.637C2555.43 454.283 2574.85 465.384 2587.43 484.179C2590.04 488.712 2592.27 493.421 2594.43 498.179L2595.97 501.417C2597.98 506.16 2598.97 511.162 2600.06 516.179L2600.72 519.085C2602.48 526.999 2603.59 534.58 2603.55 542.688C2603.56 543.935 2603.56 543.936 2603.56 545.207C2603.56 547.977 2603.55 550.746 2603.55 553.516C2603.55 555.507 2603.55 557.498 2603.55 559.489C2603.55 564.885 2603.54 570.282 2603.54 575.678C2603.53 581.32 2603.53 586.964 2603.53 592.606C2603.52 603.287 2603.52 613.968 2603.51 624.649C2603.5 636.811 2603.49 648.974 2603.49 661.136C2603.47 686.15 2603.46 711.164 2603.43 736.179H2557.43L2557.43 736.137V692.179H2556.43C2554.46 694.492 2553.19 696.772 2552.1 699.438C2550.56 701.662 2549.01 703.904 2547.43 706.179C2544.48 709.61 2541.55 712.913 2538.43 716.179L2536.81 718.034C2529.37 726.178 2518.69 732.312 2508.43 736.179C2507.85 736.406 2507.26 736.634 2506.65 736.868C2481.61 746.444 2451.81 746.895 2426.91 736.347C2407.56 727.477 2392.04 713.124 2384.33 693.039C2376.5 670.906 2376.84 643.676 2386.06 622.026C2396.32 600.716 2413.99 585.423 2436.14 577.425C2440.54 575.908 2444.97 574.512 2449.43 573.179L2452.63 572.163C2458.3 570.696 2464.04 569.76 2469.81 568.804C2470.78 568.642 2470.78 568.642 2471.77 568.477C2483.75 566.484 2495.78 564.966 2507.84 563.562C2517.43 562.445 2526.94 561.094 2536.46 559.503C2539.74 558.964 2543.02 558.474 2546.31 557.991L2549.55 557.511C2552.21 557.204 2554.76 557.115 2557.43 557.179C2556.95 536.507 2554.23 516.527 2540.06 500.491L2537.43 498.179L2535.8 496.722C2520.66 484.209 2500.77 484.886 2482.25 486.446C2457.64 489.297 2435.2 499.275 2415.46 513.979C2412.85 515.88 2410.21 517.54 2407.43 519.179C2407.21 512.738 2407.05 506.298 2406.94 499.854C2406.89 497.664 2406.83 495.474 2406.76 493.284C2406.65 490.131 2406.59 486.982 2406.56 483.827C2406.51 482.852 2406.46 481.876 2406.41 480.871C2406.41 474.205 2406.41 474.205 2409.35 471.264C2411.65 469.698 2413.93 468.403 2416.43 467.179C2417.21 466.78 2417.98 466.381 2418.77 465.971C2420.84 464.919 2422.94 463.948 2425.06 462.991L2427.22 461.993C2429.28 461.041 2431.36 460.108 2433.43 459.179L2436.82 457.628C2457.65 449.272 2479.22 446.925 2501.43 446.866C2502.23 446.862 2503.04 446.858 2503.86 446.854ZM2557.43 594.179C2551.75 594.045 2546.28 594.189 2540.66 595.042C2532.06 596.418 2523.44 597.58 2514.8 598.667C2489.88 601.799 2457.27 602.83 2438.1 621.386L2436.43 623.179C2428.41 631.637 2426.27 641.43 2426.02 652.764C2426.01 653.797 2426 654.801 2425.99 655.804C2425.9 664.813 2426.79 673.44 2431.24 681.429L2433.43 684.179C2434.75 685.964 2436.09 687.66 2437.56 689.319C2448.4 700.088 2461.11 704.794 2476.19 704.765C2478.2 704.721 2480.2 704.679 2482.2 704.68C2489.58 704.705 2496.31 704.405 2503.32 701.976C2504.04 701.704 2504.73 701.442 2505.43 701.179C2515.79 697.659 2525.68 692.025 2533.68 684.491C2551.9 664.754 2558.23 642.102 2557.73 615.73C2557.7 613.914 2557.67 612.096 2557.65 610.279C2557.6 604.912 2557.53 599.545 2557.43 594.179Z" fill="#030303"/>
</svg>
